<?xml version="1.0" encoding="UTF-8" standalone="no"?>
<!-- Created with Inkscape (http://www.inkscape.org/) -->

<svg
   xmlns:dc="http://purl.org/dc/elements/1.1/"
   xmlns:cc="http://creativecommons.org/ns#"
   xmlns:rdf="http://www.w3.org/1999/02/22-rdf-syntax-ns#"
   xmlns:svg="http://www.w3.org/2000/svg"
   xmlns="http://www.w3.org/2000/svg"
   xmlns:xlink="http://www.w3.org/1999/xlink"
   xmlns:sodipodi="http://sodipodi.sourceforge.net/DTD/sodipodi-0.dtd"
   xmlns:inkscape="http://www.inkscape.org/namespaces/inkscape"
   width="210mm"
   height="297mm"
   viewBox="0 0 744.09448819 1052.3622047"
   id="svg2"
   version="1.1"
   inkscape:version="0.91 r13725"
   sodipodi:docname="yes.svg">
  <defs
     id="defs4">
    <linearGradient
       inkscape:collect="always"
       id="linearGradient4245">
      <stop
         style="stop-color:#00ff00;stop-opacity:1;"
         offset="0"
         id="stop4247" />
      <stop
         style="stop-color:#beffbe;stop-opacity:1"
         offset="1"
         id="stop4249" />
    </linearGradient>
    <radialGradient
       inkscape:collect="always"
       xlink:href="#linearGradient4245"
       id="radialGradient4253"
       cx="218.26257"
       cy="316.72702"
       fx="218.26257"
       fy="316.72702"
       r="107.55052"
       gradientTransform="matrix(1.0543206,0.0102952,-0.0102195,1.0465687,-8.6193775,-16.996654)"
       gradientUnits="userSpaceOnUse" />
  </defs>
  <sodipodi:namedview
     id="base"
     pagecolor="#ffffff"
     bordercolor="#666666"
     borderopacity="1.0"
     inkscape:pageopacity="0.0"
     inkscape:pageshadow="2"
     inkscape:zoom="1.7118182"
     inkscape:cx="217.14286"
     inkscape:cy="744.27657"
     inkscape:document-units="px"
     inkscape:current-layer="layer1"
     showgrid="false"
     inkscape:window-width="1366"
     inkscape:window-height="705"
     inkscape:window-x="-8"
     inkscape:window-y="-8"
     inkscape:window-maximized="1" />
  <metadata
     id="metadata7">
    <rdf:RDF>
      <cc:Work
         rdf:about="">
        <dc:format>image/svg+xml</dc:format>
        <dc:type
           rdf:resource="http://purl.org/dc/dcmitype/StillImage" />
        <dc:title></dc:title>
      </cc:Work>
    </rdf:RDF>
  </metadata>
  <g
     inkscape:label="Layer 1"
     inkscape:groupmode="layer"
     id="layer1">
    <path
       style="opacity:1;fill:url(#radialGradient4253);fill-opacity:1;fill-rule:evenodd;stroke:#c5ffc2;stroke-width:2.337;stroke-miterlimit:4;stroke-dasharray:none;stroke-opacity:1"
       d="m 206.46721,422.29434 c -11.9577,-1.3933 -23.04426,-4.61809 -33.94764,-9.87447 -22.38025,-10.78924 -39.56853,-27.88867 -50.09812,-49.83912 -16.29764,-33.97479 -13.55373,-73.82149 7.22824,-104.96776 15.86992,-23.78449 40.07695,-39.92394 68.50754,-45.67573 5.80532,-1.17448 8.38302,-1.34749 20.09556,-1.3488 14.4522,-0.002 18.88551,0.53156 29.20871,3.51274 26.40224,7.62458 48.52215,24.83257 62.83022,48.87824 13.25573,22.27713 17.62382,50.38522 11.86501,76.34969 -10.93507,49.30239 -54.64553,84.10692 -104.90322,83.52936 -3.62724,-0.0417 -8.48107,-0.29555 -10.7863,-0.56415 z m 24.52707,-34.07899 c 28.9843,-5.54562 51.06224,-27.58216 57.39611,-57.2885 1.23741,-5.80351 1.40512,-19.24638 0.31704,-25.41158 -4.68505,-26.54604 -23.70259,-48.54624 -48.99393,-56.67801 -15.30891,-4.92217 -33.34877,-4.48017 -47.94289,1.17469 -15.98219,6.19269 -30.89086,19.6734 -38.55578,34.86289 -10.07997,19.97533 -10.17569,44.78435 -0.24869,64.4535 8.85637,17.54784 24.37461,30.84928 42.79594,36.68251 4.82513,1.52791 7.84027,2.14495 16.06479,3.28761 3.10897,0.43194 14.66061,-0.22082 19.16741,-1.08311 z"
       id="path4157"
       inkscape:connector-curvature="0" />
  </g>
</svg>
